<svg width="216" height="343" xmlns="http://www.w3.org/2000/svg" xmlns:xlink="http://www.w3.org/1999/xlink">
    <defs>
        <path id="a" d="M0 0h78.289v68H0z"/>
        <linearGradient x1="25.053%" y1="-58.495%" x2="72.848%" y2="146.181%" id="c">
            <stop stop-color="#151C4B" offset="0%"/>
            <stop stop-color="#016CA8" offset="100%"/>
        </linearGradient>
        <radialGradient cx="35.765%" cy="-15.565%" fx="35.765%" fy="-15.565%" r="102.29%" gradientTransform="matrix(0 1 -1.4023 0 .14 -.513)" id="d">
            <stop stop-color="#1D1F6C" offset="0%"/>
            <stop stop-color="#A8A7FF" offset="100%"/>
        </radialGradient>
        <radialGradient cx="35.765%" cy="-15.565%" fx="35.765%" fy="-15.565%" r="102.29%" gradientTransform="matrix(0 1 -1.74264 0 .086 -.513)" id="e">
            <stop stop-color="#1D1F6C" offset="0%"/>
            <stop stop-color="#A8A7FF" offset="100%"/>
        </radialGradient>
        <radialGradient cx="35.765%" cy="-15.565%" fx="35.765%" fy="-15.565%" r="131.878%" gradientTransform="matrix(0 .77564 -1.87762 0 .065 -.433)" id="f">
            <stop stop-color="#1D1F6C" offset="0%"/>
            <stop stop-color="#A8A7FF" offset="100%"/>
        </radialGradient>
    </defs>
    <g transform="translate(-13)" fill="none" fill-rule="evenodd">
        <path d="M128.394 152.04h24.811v182.478a8.002 8.002 0 0 1-8.004 8.002h-8.803a7.997 7.997 0 0 1-8.004-8.002V152.04z" fill="#3B4CD2" fill-rule="nonzero"/>
        <path d="M50.787 276.74a1.7 1.7 0 0 1-.482-3.34c3.912-1.214 6.137-5.315 5.014-9.24-1.122-3.925-5.183-6.242-9.149-5.22a1.72 1.72 0 0 1-1.666-.404 1.705 1.705 0 0 1 .703-2.876c5.826-1.69 11.924 1.645 13.62 7.45 1.696 5.805-1.652 11.88-7.478 13.57a1.712 1.712 0 0 1-.562.06z" fill="#225471" fill-rule="nonzero"/>
        <path d="M50.787 275.68a.64.64 0 0 1-.18-1.26c4.571-1.333 7.194-6.104 5.861-10.66a.638.638 0 0 1 .11-.672.644.644 0 0 1 1.115.312c1.526 5.235-1.492 10.713-6.745 12.24l-.16.04z" opacity=".15" fill="#111A5F" fill-rule="nonzero"/>
        <path d="M49.643 263.36a32.622 32.622 0 0 1-23.088-9.466 32.38 32.38 0 0 1-9.572-22.974v-78.74h65.22v78.74c0 17.916-14.577 32.44-32.56 32.44z" fill="#111A5F" fill-rule="nonzero"/>
        <path d="M228.242 73.42v79.04H45.568V41.42h150.556c17.738 0 32.118 14.327 32.118 32z" fill="#228CCD" fill-rule="nonzero"/>
        <path d="M45.588 263.36a32.621 32.621 0 0 1-23.023-9.501 32.38 32.38 0 0 1-9.537-22.939v-78.48h65.14v78.48a32.38 32.38 0 0 1-9.543 22.946 32.621 32.621 0 0 1-23.037 9.494z" fill="#7146AB" fill-rule="nonzero"/>
        <ellipse fill="#81B6D4" fill-rule="nonzero" cx="98.263" cy="102.26" rx="8.712" ry="8.68"/>
        <ellipse fill="#81B6D4" fill-rule="nonzero" cx="98.263" cy="102.26" rx="4.898" ry="4.88"/>
        <path fill="#111A5F" fill-rule="nonzero" d="M121.79 12.24l-26.318 1.28V0l26.317 1.28zM78.168 144.92h150.074v7.38H78.168z"/>
        <path fill="#111A5F" fill-rule="nonzero" d="M78.168 144.92h33.484v7.38H78.168z"/>
        <path fill="#29316F" fill-rule="nonzero" d="M111.652 144.92h33.484v7.38h-33.484z"/>
        <path fill="#111A5F" fill-rule="nonzero" d="M145.136 144.92h33.483v7.38h-33.483z"/>
        <path fill="#29316F" fill-rule="nonzero" d="M178.599 144.92h33.484v7.38h-33.484z"/>
        <path d="M91.297 102.26c0-3.833 3.119-6.94 6.966-6.94" stroke="#FFF" stroke-width="3" opacity=".099" stroke-linecap="round"/>
        <path d="M45.588 256.88c-15.757-.011-28.525-12.74-28.525-28.44v-69.16h57.07v69.16c0 15.707-12.78 28.44-28.545 28.44z" stroke="#29316F" stroke-width="5" opacity=".05"/>
        <path fill="#204458" fill-rule="nonzero" opacity=".2" d="M153.205 157.6l-24.811 7.24v-12.8h24.811z"/>
        <path d="M133.493 178.52v147.76" stroke="#FFF" stroke-width="12" opacity=".1" stroke-linecap="round"/>
        <ellipse fill="#81B6D4" fill-rule="nonzero" cx="93.365" cy="148.82" rx="1.827" ry="1.82"/>
        <ellipse fill="#81B6D4" fill-rule="nonzero" cx="128.394" cy="148.82" rx="1.827" ry="1.82"/>
        <ellipse fill="#81B6D4" fill-rule="nonzero" cx="163.423" cy="148.82" rx="1.827" ry="1.82"/>
        <ellipse fill="#81B6D4" fill-rule="nonzero" cx="198.432" cy="148.82" rx="1.827" ry="1.82"/>
        <path fill="#141414" fill-rule="nonzero" opacity=".1" d="M78.429 141.78h149.813v3.14H78.429z"/>
        <path d="M228.242 73.42v6.96H45.628V41.42h150.556c17.715.033 32.058 14.35 32.058 32z" fill="#FFF" fill-rule="nonzero" opacity=".05"/>
        <path d="M78.289 73.82v78.64h-65.24V73.82c0-17.927 14.586-32.46 32.58-32.46 17.993 0 32.58 14.533 32.58 32.46h.08z" fill="#606485" fill-rule="nonzero"/>
        <g transform="translate(0 88.202)">
            <mask id="b" fill="#fff">
                <use xlink:href="#a"/>
            </mask>
            <g mask="url(#b)">
                <path fill="#0A2A3E" d="M19.59 23.416v40.567h91.228L31.265 16.616l-11.674-6.8z"/>
                <path fill="#30367C" d="M117.386 23.34v40.567H26.158l79.554-47.367 11.674-6.8z"/>
                <path fill="#0F0810" d="M67.831 8.108h50.131v2.046L67.832 47.63 19.013 10.154V8.108z"/>
                <path d="M85.099 20.32c-1.638 1.13-2.454 1.859-2.985 4.282l-4.146 18.883s1.14-.644 1.514-.868v-.002c1.58-1.091 2.393-1.813 2.928-4.042l.009-.023 4.195-19.1s-1.143.644-1.515.87" fill="#111A5F"/>
                <path d="M20.392 5.964h.029c2.32.435 3.332.01 5.006-.943.363-.24 1.676-.937 1.676-.937S9.197.368 8.557.254c-2.516-.452-4.55-.276-6.46.665l-2.07.944 20.366 4.1h-.001" fill="url(#c)" transform="translate(59 14.798)"/>
                <path d="M80.717 25.821h-5.645v.001c-1.302.016-2.57 1.015-2.843 2.25h2.566l-.945 4.28c-.264 1.245.587 2.253 1.9 2.253l.003-.012.022.012h.446l1.431-6.533h.223v-.002c1.303-.014 2.571-1.015 2.842-2.249" fill="#111A5F"/>
                <path d="M5.021 5.153c-.967.449-2.014.854-3.129 1.21l.903-4.09H.23C.502 1.04 1.77.04 3.072.024h5.645c-.27 1.234-1.54 2.234-2.842 2.248v.003h-.223l-.631 2.88z" fill-opacity=".22" fill="url(#d)" transform="translate(72 25.798)"/>
                <g>
                    <path d="M68.098 25.821h-4.295l-1.756 8.784h2.563l1.35-6.693h1.413c.677 0 .877.431.877.762 0 .345-.17.659-.527.833-.123.062-.27.107-.439.132-.042.004-.127.024-.127.024-.885.192-1.46.93-1.586 1.878h1.045c.58.05.854.366.858.78.007.446-.115.982-.11 1.417.005.396.02.632.12.867h2.463c-.109-.26-.148-.655-.153-1.052-.005-.397.012-.832.007-1.241-.01-.844-.127-1.575-.893-1.799v-.016a2.72 2.72 0 0 0 .881-.337c.63-.38 1.07-1.123 1.07-2.037 0-1.858-1.196-2.302-2.761-2.302" fill="#111A5F"/>
                    <path d="M7.797 7.207c-.784.182-1.593.338-2.423.464.029-.375.106-.79.1-1.149-.004-.413-.277-.729-.858-.78H3.57c.125-.948.7-1.685 1.586-1.877 0 0 .085-.02.127-.024.169-.025.316-.07.44-.132a.898.898 0 0 0 .526-.833c0-.331-.2-.762-.877-.762H3.96l-1.18 5.85c-.846.064-1.71.098-2.585.101L1.803.023h4.295c1.565 0 2.762.444 2.762 2.302 0 .913-.441 1.657-1.07 2.037a2.72 2.72 0 0 1-.882.337v.016c.766.223.882.955.893 1.798.003.228-.001.463-.004.694z" fill-opacity=".22" fill="url(#e)" transform="translate(62 25.798)"/>
                </g>
                <g>
                    <path d="M58.395 32.353h3.286l-.473 2.252h-6.034l1.849-8.784h.453c1.26 0 2.08 1.007 1.827 2.251l-.908 4.28" fill="#111A5F"/>
                    <path d="M6.365 8.06a38.392 38.392 0 0 1-5.917-.555L2.023.023h.453c1.26 0 2.08 1.006 1.827 2.25l-.908 4.282h3.286l-.316 1.504z" fill-opacity=".22" fill="url(#f)" transform="translate(55 25.798)"/>
                </g>
            </g>
        </g>
        <path d="M67.228 242.4a29.007 29.007 0 0 1-19.926 9.688 29.034 29.034 0 0 1-20.965-7.188" fill="#FFF" fill-rule="nonzero" opacity=".08"/>
        <path d="M116.249 49.54h74.154" stroke="#FFF" stroke-width="7" opacity=".1" stroke-linecap="round"/>
        <path fill="#111A5F" fill-rule="nonzero" d="M95.472 11.42h5.581v84.8h-5.581z"/>
    </g>
</svg>
